<?xml version="1.0" ?><svg id="Layer_1" style="enable-background:new 0 0 48 48;" version="1.1" viewBox="0 0 48 48" xml:space="preserve" xmlns="http://www.w3.org/2000/svg" xmlns:xlink="http://www.w3.org/1999/xlink"><g><path d="M27.8,30.7v-23h-2v23c-2.7,0.5-4.8,2.9-4.8,5.7c0,3.2,2.6,5.8,5.8,5.8s5.8-2.6,5.8-5.8C32.6,33.6,30.5,31.2,27.8,30.7z    M26.8,40.3c-2.1,0-3.8-1.7-3.8-3.8c0-2.1,1.7-3.8,3.8-3.8s3.8,1.7,3.8,3.8C30.6,38.6,28.9,40.3,26.8,40.3z"/><path d="M26.8,0.5c-3.2,0-5.8,2.6-5.8,5.8v20.8c-3.2,2-5.2,5.5-5.2,9.4c0,6.1,4.9,11,11,11s11-4.9,11-11c0-3.8-2-7.4-5.2-9.4v-1.4   h4.2v-2h-4.2v-3.7h4.2v-2h-4.2v-3.7h4.2v-2h-4.2V8.7h4.2v-2h-4.2V6.3C32.6,3.1,30,0.5,26.8,0.5z M35.8,36.5c0,5-4,9-9,9   c-5,0-9-4-9-9c0-3.3,1.8-6.3,4.7-7.9l0.5-0.3v-22c0-2.1,1.7-3.8,3.8-3.8s3.8,1.7,3.8,3.8v22l0.5,0.3C34,30.2,35.8,33.2,35.8,36.5z"/><polygon points="13.4,5.4 13.4,8.7 10.2,8.7 10.2,10.7 13.4,10.7 13.4,13.9 15.4,13.9 15.4,10.7 18.7,10.7 18.7,8.7 15.4,8.7    15.4,5.4  "/></g></svg>